<svg width="250" height="39" viewBox="0 0 250 39" fill="none" xmlns="http://www.w3.org/2000/svg">
<path d="M16.043 26.8064C13.8667 25.998 11.6281 25.8737 9.57614 26.4333C8.14596 26.8064 6.77796 27.5526 5.53432 28.4853L4.66376 29.2315L4.41504 29.4802L4.97467 29.9777C5.03685 29.9777 5.03686 30.0399 5.09904 30.102C5.22341 30.2264 5.34778 30.2886 5.53432 30.4129L5.9074 30.6617L6.28049 30.3508C6.34268 30.2886 6.46704 30.1642 6.5914 30.102C7.71068 29.1693 8.95431 28.5475 10.2601 28.2366C11.939 27.8013 13.7423 27.8635 15.5456 28.5475C17.0379 29.1071 20.0849 29.7911 23.7536 28.2366L23.878 28.1744L24.0645 27.9879C24.0645 27.9257 24.1267 27.9257 24.1889 27.8635C24.4998 27.4904 24.8107 27.1173 25.0594 26.682L26.303 24.7544L24.3132 25.8737C21.3907 27.4904 18.7169 27.8013 16.043 26.8064Z" fill="#55B02E"/>
<path d="M7.52364 20.0906C9.20255 19.6553 11.0058 19.7175 12.8091 20.4015C14.7989 21.1477 19.8978 22.2048 25.6186 17.0437L26.5513 16.111L26.6135 16.0488L26.8622 15.8001L26.7378 15.4891C26.6756 15.2404 26.5513 14.9295 26.4269 14.6186L26.116 13.748L25.4942 14.3699C25.432 14.4942 25.3076 14.5564 25.1833 14.6808C22.4473 17.479 18.2189 20.3393 13.3687 18.5982C11.1924 17.7899 8.95382 17.6655 6.90182 18.2251C4.91201 18.7848 3.17091 19.8419 1.55418 21.3342V21.2721L0.621456 22.267C0.621456 22.3291 0.559286 22.3292 0.497104 22.3913L0.310547 22.5779L0.372732 22.8266C0.434914 23.1375 0.559274 23.4484 0.621456 23.7593L0.994551 24.7542L1.61637 23.9459C1.67855 23.8215 1.80291 23.7593 1.86509 23.635C3.17091 22.4535 4.97419 20.7746 7.52364 20.0906Z" fill="#55B02E"/>
<path d="M1.49238 18.9715C2.92256 17.4792 4.53928 16.5464 6.28037 16.049C7.95928 15.6137 9.76255 15.6759 11.5658 16.3599C17.1622 18.4119 22.0124 15.0541 24.1266 13.2508L24.9349 12.4424L25.2458 12.1937L24.9971 11.8206C24.8106 11.6341 24.6862 11.3854 24.4997 11.1366L24.1266 10.6392L23.6913 11.0744C23.6291 11.1366 23.5047 11.261 23.4426 11.3232C20.8309 13.8104 16.7891 16.3599 12.1876 14.6188C10.0113 13.8104 7.77273 13.6861 5.72074 14.2457C4.41492 14.6188 3.17128 15.2406 1.92764 16.049L0.621818 17.1061C0.497455 17.2304 0.435273 17.2926 0.310909 17.417L0.186557 17.5413V17.7279C0.124375 18.1632 0.124367 18.5984 0.0621856 18.9715L0 20.5261L1.0571 19.4068C1.18146 19.2824 1.30583 19.0959 1.49238 18.9715Z" fill="#55B02E"/>
<path d="M17.8466 31.0349L17.7222 31.408L17.8466 31.0349C17.66 30.9727 17.5357 30.9105 17.3491 30.8483C15.1728 30.04 12.9342 29.9156 10.8822 30.4753C10.4469 30.5996 10.0117 30.724 9.57639 30.9105L8.08401 31.5945L7.71094 31.7811L8.95457 32.2163C9.32766 32.3407 9.70075 32.4651 10.0738 32.5894L10.2604 32.6516L10.4469 32.5894C10.6335 32.5273 10.82 32.4029 11.0066 32.4029C11.1309 32.4029 11.2553 32.3407 11.3797 32.2785C12.872 31.9054 14.4887 31.9054 16.2298 32.4651C16.4164 32.5272 16.5408 32.5894 16.7273 32.6516L17.0382 32.776L17.2247 32.7138C17.66 32.5894 18.1575 32.4651 18.5306 32.2785L20.2717 31.6567L18.4684 31.2214C18.2818 31.1592 18.0331 31.0971 17.8466 31.0349Z" fill="#55B02E"/>
<path d="M27.3597 18.1631L26.427 19.0958C26.3027 19.2202 26.1783 19.3445 26.0539 19.4689C23.5045 21.894 19.4005 24.5056 14.799 22.7645C12.6227 21.9562 10.3841 21.8318 8.33213 22.3915C6.40449 22.9511 4.66338 23.946 3.10884 25.4384L2.30048 26.3089L2.05176 26.6198L2.30048 26.9929C2.48703 27.2416 2.6114 27.4282 2.73576 27.6769L3.10884 28.2365L3.54412 27.6769C3.6063 27.6147 3.73066 27.4904 3.79284 27.4282C5.2852 25.8114 6.90193 24.8165 8.76739 24.3191C10.4463 23.8838 12.2496 23.946 14.0528 24.63C15.6074 25.1896 17.2241 25.3762 18.8408 25.1896C21.7012 24.8787 24.5616 23.262 26.6758 21.4587C26.8001 21.3344 26.9245 21.2722 27.0488 21.1478L27.2354 20.9613V20.7747C27.2354 20.4016 27.2976 19.9664 27.2976 19.5933L27.3597 18.1631Z" fill="#55B02E"/>
<path d="M3.73045 12.4423L3.54391 12.0692L3.73045 12.4423C4.10354 12.2557 4.53883 12.1313 4.91192 12.007C6.59083 11.5717 8.3941 11.6339 10.1974 12.3179C11.3788 12.7532 12.5603 12.9397 13.8661 12.9397C16.4777 12.9397 19.0894 12.007 21.5145 10.2037L22.4472 9.45752L22.7581 9.20879L22.1985 8.77351C22.0119 8.58697 21.7632 8.40043 21.5145 8.27607L21.1414 8.02734L20.8305 8.27607C20.7061 8.33825 20.6439 8.46261 20.5195 8.52479C17.2239 11.0121 13.9283 11.6961 10.8192 10.5146C8.58065 9.70625 6.34209 9.51971 4.10355 10.2037C3.917 10.2659 3.73045 10.3281 3.48173 10.3902L3.35738 10.4524L3.17082 10.639C3.17082 10.7012 3.10865 10.7012 3.04647 10.7633C2.79774 11.1364 2.48682 11.4473 2.23809 11.8204L1.05664 13.6237L2.98428 12.6288C3.29519 12.6288 3.54391 12.5044 3.73045 12.4423Z" fill="#55B02E"/>
<path d="M8.82967 8.21393L9.01621 8.27611C9.82457 8.58702 11.0682 8.89793 12.6228 8.89793C14.2395 8.89793 15.794 8.52484 17.3486 7.90302L19.2762 6.97029L17.9704 6.53503C17.5973 6.41067 17.2242 6.2863 16.7889 6.22412H16.6024L16.4159 6.28629C16.2293 6.34847 16.0428 6.47285 15.8562 6.53503C13.9908 7.21903 12.1253 7.34339 10.322 6.84594C10.1355 6.78376 9.94894 6.72156 9.7624 6.65938L9.57586 6.5972L9.3893 6.65938C9.01621 6.78375 8.64313 6.90812 8.27004 7.09466L6.83984 7.71648L8.33222 8.15174C8.45659 8.08956 8.64312 8.15175 8.82967 8.21393Z" fill="#55B02E"/>
<path d="M39.8041 30V10.26H43.4161V18.492H53.5241V10.26H57.1361V30H53.5241V21.488H43.4161V30H39.8041ZM67.5917 30.28C66.1357 30.28 64.8757 29.9813 63.8117 29.384C62.7477 28.7867 61.917 27.9373 61.3197 26.836C60.741 25.7347 60.4517 24.428 60.4517 22.916C60.4517 21.404 60.741 20.1067 61.3197 19.024C61.917 17.9227 62.7477 17.0733 63.8117 16.476C64.8757 15.8787 66.1357 15.58 67.5917 15.58C69.0477 15.58 70.3077 15.8787 71.3717 16.476C72.4544 17.0733 73.285 17.9227 73.8637 19.024C74.461 20.1067 74.7597 21.404 74.7597 22.916C74.7597 24.428 74.461 25.7347 73.8637 26.836C73.285 27.9373 72.4544 28.7867 71.3717 29.384C70.3077 29.9813 69.0477 30.28 67.5917 30.28ZM67.5917 27.592C68.693 27.592 69.5704 27.2093 70.2237 26.444C70.877 25.66 71.2037 24.484 71.2037 22.916C71.2037 21.348 70.877 20.1813 70.2237 19.416C69.5704 18.6507 68.693 18.268 67.5917 18.268C66.4904 18.268 65.613 18.6507 64.9597 19.416C64.3064 20.1813 63.9797 21.348 63.9797 22.916C63.9797 24.484 64.3064 25.66 64.9597 26.444C65.613 27.2093 66.4904 27.592 67.5917 27.592ZM77.778 30V19.388C77.778 18.8093 77.7594 18.2213 77.722 17.624C77.6847 17.0267 77.6287 16.4387 77.554 15.86H80.942L81.222 18.66H80.886C81.278 17.6893 81.8754 16.9333 82.678 16.392C83.4994 15.8507 84.47 15.58 85.59 15.58C86.71 15.58 87.634 15.8507 88.362 16.392C89.1087 16.9147 89.6314 17.736 89.93 18.856H89.482C89.874 17.848 90.518 17.0547 91.414 16.476C92.31 15.8787 93.3367 15.58 94.494 15.58C96.0807 15.58 97.266 16.0467 98.05 16.98C98.834 17.9133 99.226 19.3693 99.226 21.348V30H95.726V21.488C95.726 20.368 95.5394 19.5653 95.166 19.08C94.7927 18.576 94.1954 18.324 93.374 18.324C92.4034 18.324 91.638 18.6693 91.078 19.36C90.518 20.032 90.238 20.9467 90.238 22.104V30H86.738V21.488C86.738 20.368 86.5514 19.5653 86.178 19.08C85.8047 18.576 85.2074 18.324 84.386 18.324C83.4154 18.324 82.65 18.6693 82.09 19.36C81.5487 20.032 81.278 20.9467 81.278 22.104V30H77.778ZM109.794 30.28C107.423 30.28 105.566 29.6267 104.222 28.32C102.878 27.0133 102.206 25.2213 102.206 22.944C102.206 21.4693 102.495 20.1813 103.074 19.08C103.652 17.9787 104.455 17.12 105.482 16.504C106.527 15.888 107.74 15.58 109.122 15.58C110.484 15.58 111.623 15.8693 112.538 16.448C113.452 17.0267 114.143 17.8387 114.61 18.884C115.095 19.9293 115.338 21.152 115.338 22.552V23.476H105.034V21.628H112.846L112.37 22.02C112.37 20.7133 112.09 19.7147 111.53 19.024C110.988 18.3333 110.195 17.988 109.15 17.988C107.992 17.988 107.096 18.3987 106.462 19.22C105.846 20.0413 105.538 21.1893 105.538 22.664V23.028C105.538 24.5587 105.911 25.7067 106.658 26.472C107.423 27.2187 108.496 27.592 109.878 27.592C110.68 27.592 111.427 27.4893 112.118 27.284C112.827 27.06 113.499 26.7053 114.134 26.22L115.17 28.572C114.498 29.1133 113.695 29.5333 112.762 29.832C111.828 30.1307 110.839 30.28 109.794 30.28ZM118.581 30V10.26H131.601V13.088H122.193V18.688H130.957V21.516H122.193V30H118.581ZM134.325 30V15.86H137.825V30H134.325ZM134.129 13.2V9.784H138.021V13.2H134.129ZM141.626 30V19.388C141.626 18.8093 141.607 18.2213 141.57 17.624C141.532 17.0267 141.476 16.4387 141.402 15.86H144.79L145.07 18.66H144.734C145.182 17.6707 145.844 16.9147 146.722 16.392C147.599 15.8507 148.616 15.58 149.774 15.58C151.435 15.58 152.686 16.0467 153.526 16.98C154.366 17.9133 154.786 19.3693 154.786 21.348V30H151.286V21.516C151.286 20.3773 151.062 19.5653 150.614 19.08C150.184 18.576 149.531 18.324 148.654 18.324C147.571 18.324 146.712 18.66 146.078 19.332C145.443 20.004 145.126 20.9 145.126 22.02V30H141.626ZM163.957 30.28C162.725 30.28 161.642 29.9907 160.709 29.412C159.775 28.8147 159.047 27.9653 158.525 26.864C158.002 25.7627 157.741 24.4467 157.741 22.916C157.741 21.3853 158.002 20.0787 158.525 18.996C159.047 17.8947 159.775 17.0547 160.709 16.476C161.642 15.8787 162.725 15.58 163.957 15.58C165.151 15.58 166.197 15.8787 167.093 16.476C168.007 17.0547 168.614 17.8387 168.913 18.828H168.605L168.913 15.86H172.273C172.217 16.4387 172.161 17.0267 172.105 17.624C172.067 18.2213 172.049 18.8093 172.049 19.388V30H168.577L168.549 27.088H168.885C168.586 28.0587 167.979 28.8333 167.065 29.412C166.15 29.9907 165.114 30.28 163.957 30.28ZM164.937 27.592C166.038 27.592 166.925 27.2093 167.597 26.444C168.269 25.66 168.605 24.484 168.605 22.916C168.605 21.348 168.269 20.1813 167.597 19.416C166.925 18.6507 166.038 18.268 164.937 18.268C163.835 18.268 162.949 18.6507 162.277 19.416C161.605 20.1813 161.269 21.348 161.269 22.916C161.269 24.484 161.595 25.66 162.249 26.444C162.921 27.2093 163.817 27.592 164.937 27.592ZM175.86 30V19.388C175.86 18.8093 175.841 18.2213 175.804 17.624C175.767 17.0267 175.711 16.4387 175.636 15.86H179.024L179.304 18.66H178.968C179.416 17.6707 180.079 16.9147 180.956 16.392C181.833 15.8507 182.851 15.58 184.008 15.58C185.669 15.58 186.92 16.0467 187.76 16.98C188.6 17.9133 189.02 19.3693 189.02 21.348V30H185.52V21.516C185.52 20.3773 185.296 19.5653 184.848 19.08C184.419 18.576 183.765 18.324 182.888 18.324C181.805 18.324 180.947 18.66 180.312 19.332C179.677 20.004 179.36 20.9 179.36 22.02V30H175.86ZM199.227 30.28C197.771 30.28 196.492 29.9813 195.391 29.384C194.308 28.7867 193.468 27.9373 192.871 26.836C192.274 25.716 191.975 24.3907 191.975 22.86C191.975 21.3293 192.274 20.0227 192.871 18.94C193.487 17.8573 194.336 17.0267 195.419 16.448C196.502 15.8693 197.771 15.58 199.227 15.58C200.16 15.58 201.066 15.7293 201.943 16.028C202.839 16.308 203.567 16.7187 204.127 17.26L203.063 19.696C202.559 19.2293 201.99 18.884 201.355 18.66C200.739 18.4173 200.132 18.296 199.535 18.296C198.284 18.296 197.304 18.688 196.595 19.472C195.904 20.256 195.559 21.3947 195.559 22.888C195.559 24.3813 195.904 25.5293 196.595 26.332C197.304 27.1347 198.284 27.536 199.535 27.536C200.114 27.536 200.711 27.424 201.327 27.2C201.962 26.976 202.54 26.6307 203.063 26.164L204.127 28.572C203.548 29.1133 202.811 29.5333 201.915 29.832C201.038 30.1307 200.142 30.28 199.227 30.28ZM213.399 30.28C211.028 30.28 209.171 29.6267 207.827 28.32C206.483 27.0133 205.811 25.2213 205.811 22.944C205.811 21.4693 206.1 20.1813 206.679 19.08C207.258 17.9787 208.06 17.12 209.087 16.504C210.132 15.888 211.346 15.58 212.727 15.58C214.09 15.58 215.228 15.8693 216.143 16.448C217.058 17.0267 217.748 17.8387 218.215 18.884C218.7 19.9293 218.943 21.152 218.943 22.552V23.476H208.639V21.628H216.451L215.975 22.02C215.975 20.7133 215.695 19.7147 215.135 19.024C214.594 18.3333 213.8 17.988 212.755 17.988C211.598 17.988 210.702 18.3987 210.067 19.22C209.451 20.0413 209.143 21.1893 209.143 22.664V23.028C209.143 24.5587 209.516 25.7067 210.263 26.472C211.028 27.2187 212.102 27.592 213.483 27.592C214.286 27.592 215.032 27.4893 215.723 27.284C216.432 27.06 217.104 26.7053 217.739 26.22L218.775 28.572C218.103 29.1133 217.3 29.5333 216.367 29.832C215.434 30.1307 214.444 30.28 213.399 30.28ZM221.515 30V26.108H225.435V30H221.515ZM234.23 30.28C232.998 30.28 231.916 29.9907 230.982 29.412C230.049 28.8147 229.321 27.9653 228.798 26.864C228.276 25.7627 228.014 24.4467 228.014 22.916C228.014 21.3853 228.276 20.0787 228.798 18.996C229.321 17.8947 230.049 17.0547 230.982 16.476C231.916 15.8787 232.998 15.58 234.23 15.58C235.425 15.58 236.47 15.8787 237.366 16.476C238.281 17.0547 238.888 17.8387 239.186 18.828H238.878L239.186 15.86H242.546C242.49 16.4387 242.434 17.0267 242.378 17.624C242.341 18.2213 242.322 18.8093 242.322 19.388V30H238.85L238.822 27.088H239.158C238.86 28.0587 238.253 28.8333 237.338 29.412C236.424 29.9907 235.388 30.28 234.23 30.28ZM235.21 27.592C236.312 27.592 237.198 27.2093 237.87 26.444C238.542 25.66 238.878 24.484 238.878 22.916C238.878 21.348 238.542 20.1813 237.87 19.416C237.198 18.6507 236.312 18.268 235.21 18.268C234.109 18.268 233.222 18.6507 232.55 19.416C231.878 20.1813 231.542 21.348 231.542 22.916C231.542 24.484 231.869 25.66 232.522 26.444C233.194 27.2093 234.09 27.592 235.21 27.592ZM246.133 30V15.86H249.633V30H246.133ZM245.937 13.2V9.784H249.829V13.2H245.937Z" fill="white"/>
</svg>
